<mxfile host="app.diagrams.net" agent="Mozilla/5.0 (Windows NT 10.0; Win64; x64) AppleWebKit/537.36 (KHTML, like Gecko) Chrome/134.0.0.0 Safari/537.36" version="26.2.6">
  <diagram name="第 1 页" id="ZxWvzUlnIDP-lIGuV4_N">
    <mxGraphModel dx="1182" dy="630" grid="1" gridSize="10" guides="1" tooltips="1" connect="1" arrows="1" fold="1" page="1" pageScale="1" pageWidth="827" pageHeight="1169" math="0" shadow="0">
      <root>
        <mxCell id="0" />
        <mxCell id="1" parent="0" />
        <mxCell id="BS0-TJ9Gr1dDW-5KP8CO-1" value="3" style="whiteSpace=wrap;html=1;aspect=fixed;fillColor=#FAFFB8;" parent="1" vertex="1">
          <mxGeometry x="120" y="160" width="40" height="40" as="geometry" />
        </mxCell>
        <mxCell id="BS0-TJ9Gr1dDW-5KP8CO-2" value="1" style="whiteSpace=wrap;html=1;aspect=fixed;fillColor=#35B0AB;" parent="1" vertex="1">
          <mxGeometry x="160" y="160" width="40" height="40" as="geometry" />
        </mxCell>
        <mxCell id="BS0-TJ9Gr1dDW-5KP8CO-3" value="2" style="whiteSpace=wrap;html=1;aspect=fixed;fillColor=#99CC66;" parent="1" vertex="1">
          <mxGeometry x="200" y="160" width="40" height="40" as="geometry" />
        </mxCell>
        <mxCell id="BS0-TJ9Gr1dDW-5KP8CO-4" value="3" style="whiteSpace=wrap;html=1;aspect=fixed;fillColor=#FAFFB8;" parent="1" vertex="1">
          <mxGeometry x="240" y="160" width="40" height="40" as="geometry" />
        </mxCell>
        <mxCell id="BS0-TJ9Gr1dDW-5KP8CO-5" value="2" style="whiteSpace=wrap;html=1;aspect=fixed;fillColor=#99CC66;" parent="1" vertex="1">
          <mxGeometry x="280" y="160" width="40" height="40" as="geometry" />
        </mxCell>
        <mxCell id="BS0-TJ9Gr1dDW-5KP8CO-109" style="edgeStyle=orthogonalEdgeStyle;rounded=0;orthogonalLoop=1;jettySize=auto;html=1;exitX=0.5;exitY=1;exitDx=0;exitDy=0;entryX=0.5;entryY=0;entryDx=0;entryDy=0;" parent="1" source="BS0-TJ9Gr1dDW-5KP8CO-6" target="BS0-TJ9Gr1dDW-5KP8CO-12" edge="1">
          <mxGeometry relative="1" as="geometry" />
        </mxCell>
        <mxCell id="BS0-TJ9Gr1dDW-5KP8CO-6" value="1" style="whiteSpace=wrap;html=1;aspect=fixed;fillColor=#35B0AB;" parent="1" vertex="1">
          <mxGeometry x="320" y="160" width="40" height="40" as="geometry" />
        </mxCell>
        <mxCell id="BS0-TJ9Gr1dDW-5KP8CO-7" value="3" style="whiteSpace=wrap;html=1;aspect=fixed;fillColor=#FAFFB8;" parent="1" vertex="1">
          <mxGeometry x="120" y="240" width="40" height="40" as="geometry" />
        </mxCell>
        <mxCell id="BS0-TJ9Gr1dDW-5KP8CO-8" value="1" style="whiteSpace=wrap;html=1;aspect=fixed;fillColor=#35B0AB;" parent="1" vertex="1">
          <mxGeometry x="160" y="240" width="40" height="40" as="geometry" />
        </mxCell>
        <mxCell id="BS0-TJ9Gr1dDW-5KP8CO-9" value="2" style="whiteSpace=wrap;html=1;aspect=fixed;fillColor=#99CC66;" parent="1" vertex="1">
          <mxGeometry x="200" y="240" width="40" height="40" as="geometry" />
        </mxCell>
        <mxCell id="BS0-TJ9Gr1dDW-5KP8CO-10" value="2" style="whiteSpace=wrap;html=1;aspect=fixed;fillColor=#99CC66;" parent="1" vertex="1">
          <mxGeometry x="320" y="240" width="40" height="40" as="geometry" />
        </mxCell>
        <mxCell id="BS0-TJ9Gr1dDW-5KP8CO-11" value="3" style="whiteSpace=wrap;html=1;aspect=fixed;fillColor=#FAFFB8;" parent="1" vertex="1">
          <mxGeometry x="280" y="240" width="40" height="40" as="geometry" />
        </mxCell>
        <mxCell id="BS0-TJ9Gr1dDW-5KP8CO-12" value="1" style="whiteSpace=wrap;html=1;aspect=fixed;fillColor=#35B0AB;" parent="1" vertex="1">
          <mxGeometry x="240" y="240" width="40" height="40" as="geometry" />
        </mxCell>
        <mxCell id="BS0-TJ9Gr1dDW-5KP8CO-13" value="3" style="whiteSpace=wrap;html=1;aspect=fixed;fillColor=#FAFFB8;" parent="1" vertex="1">
          <mxGeometry x="440" y="160" width="40" height="40" as="geometry" />
        </mxCell>
        <mxCell id="ZzFwXnMAfw1WLT5CRGv8-5" style="edgeStyle=orthogonalEdgeStyle;rounded=0;orthogonalLoop=1;jettySize=auto;html=1;exitX=0.5;exitY=1;exitDx=0;exitDy=0;entryX=0.25;entryY=0;entryDx=0;entryDy=0;" edge="1" parent="1" source="BS0-TJ9Gr1dDW-5KP8CO-14" target="BS0-TJ9Gr1dDW-5KP8CO-21">
          <mxGeometry relative="1" as="geometry">
            <Array as="points">
              <mxPoint x="500" y="210" />
              <mxPoint x="570" y="210" />
            </Array>
          </mxGeometry>
        </mxCell>
        <mxCell id="BS0-TJ9Gr1dDW-5KP8CO-14" value="1" style="whiteSpace=wrap;html=1;aspect=fixed;fillColor=#35B0AB;" parent="1" vertex="1">
          <mxGeometry x="480" y="160" width="40" height="40" as="geometry" />
        </mxCell>
        <mxCell id="ZzFwXnMAfw1WLT5CRGv8-2" style="edgeStyle=orthogonalEdgeStyle;rounded=0;orthogonalLoop=1;jettySize=auto;html=1;exitX=0.5;exitY=1;exitDx=0;exitDy=0;entryX=0.5;entryY=0;entryDx=0;entryDy=0;" edge="1" parent="1" source="BS0-TJ9Gr1dDW-5KP8CO-15" target="BS0-TJ9Gr1dDW-5KP8CO-20">
          <mxGeometry relative="1" as="geometry" />
        </mxCell>
        <mxCell id="BS0-TJ9Gr1dDW-5KP8CO-15" value="2" style="whiteSpace=wrap;html=1;aspect=fixed;fillColor=#99CC66;" parent="1" vertex="1">
          <mxGeometry x="520" y="160" width="40" height="40" as="geometry" />
        </mxCell>
        <mxCell id="ZzFwXnMAfw1WLT5CRGv8-1" style="edgeStyle=orthogonalEdgeStyle;rounded=0;orthogonalLoop=1;jettySize=auto;html=1;exitX=0.5;exitY=1;exitDx=0;exitDy=0;entryX=0.5;entryY=0;entryDx=0;entryDy=0;" edge="1" parent="1" source="BS0-TJ9Gr1dDW-5KP8CO-16" target="BS0-TJ9Gr1dDW-5KP8CO-22">
          <mxGeometry relative="1" as="geometry" />
        </mxCell>
        <mxCell id="BS0-TJ9Gr1dDW-5KP8CO-16" value="3" style="whiteSpace=wrap;html=1;aspect=fixed;fillColor=#FAFFB8;" parent="1" vertex="1">
          <mxGeometry x="560" y="160" width="40" height="40" as="geometry" />
        </mxCell>
        <mxCell id="BS0-TJ9Gr1dDW-5KP8CO-17" value="2" style="whiteSpace=wrap;html=1;aspect=fixed;fillColor=#99CC66;" parent="1" vertex="1">
          <mxGeometry x="600" y="160" width="40" height="40" as="geometry" />
        </mxCell>
        <mxCell id="BS0-TJ9Gr1dDW-5KP8CO-18" value="1" style="whiteSpace=wrap;html=1;aspect=fixed;fillColor=#35B0AB;" parent="1" vertex="1">
          <mxGeometry x="640" y="160" width="40" height="40" as="geometry" />
        </mxCell>
        <mxCell id="BS0-TJ9Gr1dDW-5KP8CO-19" value="3" style="whiteSpace=wrap;html=1;aspect=fixed;fillColor=#FAFFB8;" parent="1" vertex="1">
          <mxGeometry x="440" y="240" width="40" height="40" as="geometry" />
        </mxCell>
        <mxCell id="BS0-TJ9Gr1dDW-5KP8CO-20" value="2" style="whiteSpace=wrap;html=1;aspect=fixed;fillColor=#99CC66;" parent="1" vertex="1">
          <mxGeometry x="520" y="240" width="40" height="40" as="geometry" />
        </mxCell>
        <mxCell id="BS0-TJ9Gr1dDW-5KP8CO-21" value="1" style="whiteSpace=wrap;html=1;aspect=fixed;fillColor=#35B0AB;" parent="1" vertex="1">
          <mxGeometry x="560" y="240" width="40" height="40" as="geometry" />
        </mxCell>
        <mxCell id="BS0-TJ9Gr1dDW-5KP8CO-22" value="3" style="whiteSpace=wrap;html=1;aspect=fixed;fillColor=#FAFFB8;" parent="1" vertex="1">
          <mxGeometry x="480" y="240" width="40" height="40" as="geometry" />
        </mxCell>
        <mxCell id="BS0-TJ9Gr1dDW-5KP8CO-23" value="2" style="whiteSpace=wrap;html=1;aspect=fixed;fillColor=#99CC66;" parent="1" vertex="1">
          <mxGeometry x="600" y="240" width="40" height="40" as="geometry" />
        </mxCell>
        <mxCell id="BS0-TJ9Gr1dDW-5KP8CO-24" value="1" style="whiteSpace=wrap;html=1;aspect=fixed;fillColor=#35B0AB;" parent="1" vertex="1">
          <mxGeometry x="640" y="240" width="40" height="40" as="geometry" />
        </mxCell>
        <mxCell id="BS0-TJ9Gr1dDW-5KP8CO-33" value="1" style="whiteSpace=wrap;html=1;aspect=fixed;fillColor=#35B0AB;" parent="1" vertex="1">
          <mxGeometry x="120" y="320" width="40" height="40" as="geometry" />
        </mxCell>
        <mxCell id="BS0-TJ9Gr1dDW-5KP8CO-34" value="2" style="whiteSpace=wrap;html=1;aspect=fixed;fillColor=#35B0AB;" parent="1" vertex="1">
          <mxGeometry x="160" y="320" width="40" height="40" as="geometry" />
        </mxCell>
        <mxCell id="BS0-TJ9Gr1dDW-5KP8CO-47" style="edgeStyle=orthogonalEdgeStyle;rounded=0;orthogonalLoop=1;jettySize=auto;html=1;exitX=0.5;exitY=1;exitDx=0;exitDy=0;entryX=0.5;entryY=0;entryDx=0;entryDy=0;" parent="1" source="BS0-TJ9Gr1dDW-5KP8CO-35" target="BS0-TJ9Gr1dDW-5KP8CO-42" edge="1">
          <mxGeometry relative="1" as="geometry" />
        </mxCell>
        <mxCell id="BS0-TJ9Gr1dDW-5KP8CO-35" value="2" style="whiteSpace=wrap;html=1;aspect=fixed;fillColor=#99CC66;" parent="1" vertex="1">
          <mxGeometry x="200" y="320" width="40" height="40" as="geometry" />
        </mxCell>
        <mxCell id="BS0-TJ9Gr1dDW-5KP8CO-36" value="3" style="whiteSpace=wrap;html=1;aspect=fixed;fillColor=#99CC66;" parent="1" vertex="1">
          <mxGeometry x="240" y="320" width="40" height="40" as="geometry" />
        </mxCell>
        <mxCell id="BS0-TJ9Gr1dDW-5KP8CO-38" value="3" style="whiteSpace=wrap;html=1;aspect=fixed;fillColor=#FAFFB8;" parent="1" vertex="1">
          <mxGeometry x="280" y="320" width="40" height="40" as="geometry" />
        </mxCell>
        <mxCell id="BS0-TJ9Gr1dDW-5KP8CO-39" value="2" style="whiteSpace=wrap;html=1;aspect=fixed;fillColor=#FAFFB8;" parent="1" vertex="1">
          <mxGeometry x="320" y="320" width="40" height="40" as="geometry" />
        </mxCell>
        <mxCell id="BS0-TJ9Gr1dDW-5KP8CO-40" value="1" style="whiteSpace=wrap;html=1;aspect=fixed;fillColor=#35B0AB;" parent="1" vertex="1">
          <mxGeometry x="120" y="400" width="40" height="40" as="geometry" />
        </mxCell>
        <mxCell id="BS0-TJ9Gr1dDW-5KP8CO-41" value="2" style="whiteSpace=wrap;html=1;aspect=fixed;fillColor=#35B0AB;" parent="1" vertex="1">
          <mxGeometry x="160" y="400" width="40" height="40" as="geometry" />
        </mxCell>
        <mxCell id="BS0-TJ9Gr1dDW-5KP8CO-42" value="1" style="whiteSpace=wrap;html=1;aspect=fixed;fillColor=#99CC66;" parent="1" vertex="1">
          <mxGeometry x="200" y="400" width="40" height="40" as="geometry" />
        </mxCell>
        <mxCell id="BS0-TJ9Gr1dDW-5KP8CO-43" value="3" style="whiteSpace=wrap;html=1;aspect=fixed;fillColor=#99CC66;" parent="1" vertex="1">
          <mxGeometry x="240" y="400" width="40" height="40" as="geometry" />
        </mxCell>
        <mxCell id="BS0-TJ9Gr1dDW-5KP8CO-44" value="3" style="whiteSpace=wrap;html=1;aspect=fixed;fillColor=#FAFFB8;" parent="1" vertex="1">
          <mxGeometry x="280" y="400" width="40" height="40" as="geometry" />
        </mxCell>
        <mxCell id="BS0-TJ9Gr1dDW-5KP8CO-45" value="2" style="whiteSpace=wrap;html=1;aspect=fixed;fillColor=#FAFFB8;" parent="1" vertex="1">
          <mxGeometry x="320" y="400" width="40" height="40" as="geometry" />
        </mxCell>
        <mxCell id="BS0-TJ9Gr1dDW-5KP8CO-64" style="edgeStyle=orthogonalEdgeStyle;rounded=0;orthogonalLoop=1;jettySize=auto;html=1;exitX=0.5;exitY=1;exitDx=0;exitDy=0;entryX=0.5;entryY=0;entryDx=0;entryDy=0;" parent="1" source="BS0-TJ9Gr1dDW-5KP8CO-49" target="BS0-TJ9Gr1dDW-5KP8CO-56" edge="1">
          <mxGeometry relative="1" as="geometry" />
        </mxCell>
        <mxCell id="BS0-TJ9Gr1dDW-5KP8CO-49" value="2" style="whiteSpace=wrap;html=1;aspect=fixed;fillColor=#35B0AB;" parent="1" vertex="1">
          <mxGeometry x="440" y="320" width="40" height="40" as="geometry" />
        </mxCell>
        <mxCell id="BS0-TJ9Gr1dDW-5KP8CO-50" value="1" style="whiteSpace=wrap;html=1;aspect=fixed;fillColor=#35B0AB;" parent="1" vertex="1">
          <mxGeometry x="480" y="320" width="40" height="40" as="geometry" />
        </mxCell>
        <mxCell id="BS0-TJ9Gr1dDW-5KP8CO-52" value="3" style="whiteSpace=wrap;html=1;aspect=fixed;fillColor=#99CC66;" parent="1" vertex="1">
          <mxGeometry x="520" y="320" width="40" height="40" as="geometry" />
        </mxCell>
        <mxCell id="BS0-TJ9Gr1dDW-5KP8CO-62" style="edgeStyle=orthogonalEdgeStyle;rounded=0;orthogonalLoop=1;jettySize=auto;html=1;exitX=0.5;exitY=1;exitDx=0;exitDy=0;entryX=0.5;entryY=0;entryDx=0;entryDy=0;" parent="1" source="BS0-TJ9Gr1dDW-5KP8CO-53" target="BS0-TJ9Gr1dDW-5KP8CO-59" edge="1">
          <mxGeometry relative="1" as="geometry" />
        </mxCell>
        <mxCell id="BS0-TJ9Gr1dDW-5KP8CO-53" value="2" style="whiteSpace=wrap;html=1;aspect=fixed;fillColor=#99CC66;" parent="1" vertex="1">
          <mxGeometry x="560" y="320" width="40" height="40" as="geometry" />
        </mxCell>
        <mxCell id="BS0-TJ9Gr1dDW-5KP8CO-54" value="2" style="whiteSpace=wrap;html=1;aspect=fixed;gradientColor=none;fillColor=#FAFFB8;" parent="1" vertex="1">
          <mxGeometry x="600" y="320" width="40" height="40" as="geometry" />
        </mxCell>
        <mxCell id="BS0-TJ9Gr1dDW-5KP8CO-63" style="edgeStyle=orthogonalEdgeStyle;rounded=0;orthogonalLoop=1;jettySize=auto;html=1;exitX=0.5;exitY=1;exitDx=0;exitDy=0;entryX=0.5;entryY=0;entryDx=0;entryDy=0;" parent="1" source="BS0-TJ9Gr1dDW-5KP8CO-55" target="BS0-TJ9Gr1dDW-5KP8CO-61" edge="1">
          <mxGeometry relative="1" as="geometry" />
        </mxCell>
        <mxCell id="BS0-TJ9Gr1dDW-5KP8CO-55" value="2" style="whiteSpace=wrap;html=1;aspect=fixed;gradientColor=none;fillColor=#FAFFB8;" parent="1" vertex="1">
          <mxGeometry x="640" y="320" width="40" height="40" as="geometry" />
        </mxCell>
        <mxCell id="BS0-TJ9Gr1dDW-5KP8CO-56" value="3" style="whiteSpace=wrap;html=1;aspect=fixed;fillColor=#35B0AB;" parent="1" vertex="1">
          <mxGeometry x="440" y="400" width="40" height="40" as="geometry" />
        </mxCell>
        <mxCell id="BS0-TJ9Gr1dDW-5KP8CO-57" value="1" style="whiteSpace=wrap;html=1;aspect=fixed;fillColor=#35B0AB;" parent="1" vertex="1">
          <mxGeometry x="480" y="400" width="40" height="40" as="geometry" />
        </mxCell>
        <mxCell id="BS0-TJ9Gr1dDW-5KP8CO-58" value="3" style="whiteSpace=wrap;html=1;aspect=fixed;fillColor=#99CC66;" parent="1" vertex="1">
          <mxGeometry x="520" y="400" width="40" height="40" as="geometry" />
        </mxCell>
        <mxCell id="BS0-TJ9Gr1dDW-5KP8CO-59" value="1" style="whiteSpace=wrap;html=1;aspect=fixed;fillColor=#99CC66;" parent="1" vertex="1">
          <mxGeometry x="560" y="400" width="40" height="40" as="geometry" />
        </mxCell>
        <mxCell id="BS0-TJ9Gr1dDW-5KP8CO-60" value="2" style="whiteSpace=wrap;html=1;aspect=fixed;fillColor=#FAFFB8;" parent="1" vertex="1">
          <mxGeometry x="600" y="400" width="40" height="40" as="geometry" />
        </mxCell>
        <mxCell id="BS0-TJ9Gr1dDW-5KP8CO-61" value="1" style="whiteSpace=wrap;html=1;aspect=fixed;fillColor=#FAFFB8;" parent="1" vertex="1">
          <mxGeometry x="640" y="400" width="40" height="40" as="geometry" />
        </mxCell>
        <mxCell id="BS0-TJ9Gr1dDW-5KP8CO-66" value="2" style="whiteSpace=wrap;html=1;aspect=fixed;fillColor=#FAFFB8;" parent="1" vertex="1">
          <mxGeometry x="120" y="480" width="40" height="40" as="geometry" />
        </mxCell>
        <mxCell id="BS0-TJ9Gr1dDW-5KP8CO-67" value="2" style="whiteSpace=wrap;html=1;aspect=fixed;fillColor=#35B0AB;" parent="1" vertex="1">
          <mxGeometry x="160" y="480" width="40" height="40" as="geometry" />
        </mxCell>
        <mxCell id="BS0-TJ9Gr1dDW-5KP8CO-68" style="edgeStyle=orthogonalEdgeStyle;rounded=0;orthogonalLoop=1;jettySize=auto;html=1;exitX=0.5;exitY=1;exitDx=0;exitDy=0;entryX=0.5;entryY=0;entryDx=0;entryDy=0;" parent="1" source="BS0-TJ9Gr1dDW-5KP8CO-69" target="BS0-TJ9Gr1dDW-5KP8CO-75" edge="1">
          <mxGeometry relative="1" as="geometry" />
        </mxCell>
        <mxCell id="BS0-TJ9Gr1dDW-5KP8CO-69" value="1" style="whiteSpace=wrap;html=1;aspect=fixed;fillColor=#99CC66;" parent="1" vertex="1">
          <mxGeometry x="200" y="480" width="40" height="40" as="geometry" />
        </mxCell>
        <mxCell id="BS0-TJ9Gr1dDW-5KP8CO-70" value="2" style="whiteSpace=wrap;html=1;aspect=fixed;fillColor=#FAFFB8;" parent="1" vertex="1">
          <mxGeometry x="240" y="480" width="40" height="40" as="geometry" />
        </mxCell>
        <mxCell id="BS0-TJ9Gr1dDW-5KP8CO-71" value="1" style="whiteSpace=wrap;html=1;aspect=fixed;fillColor=#99CC66;" parent="1" vertex="1">
          <mxGeometry x="280" y="480" width="40" height="40" as="geometry" />
        </mxCell>
        <mxCell id="BS0-TJ9Gr1dDW-5KP8CO-72" value="1" style="whiteSpace=wrap;html=1;aspect=fixed;fillColor=#35B0AB;" parent="1" vertex="1">
          <mxGeometry x="320" y="480" width="40" height="40" as="geometry" />
        </mxCell>
        <mxCell id="BS0-TJ9Gr1dDW-5KP8CO-73" value="2" style="whiteSpace=wrap;html=1;aspect=fixed;fillColor=#FAFFB8;" parent="1" vertex="1">
          <mxGeometry x="120" y="560" width="40" height="40" as="geometry" />
        </mxCell>
        <mxCell id="BS0-TJ9Gr1dDW-5KP8CO-74" value="2" style="whiteSpace=wrap;html=1;aspect=fixed;fillColor=#35B0AB;" parent="1" vertex="1">
          <mxGeometry x="160" y="560" width="40" height="40" as="geometry" />
        </mxCell>
        <mxCell id="BS0-TJ9Gr1dDW-5KP8CO-75" value="2" style="whiteSpace=wrap;html=1;aspect=fixed;fillColor=#99CC66;" parent="1" vertex="1">
          <mxGeometry x="200" y="560" width="40" height="40" as="geometry" />
        </mxCell>
        <mxCell id="BS0-TJ9Gr1dDW-5KP8CO-76" value="2" style="whiteSpace=wrap;html=1;aspect=fixed;fillColor=#FAFFB8;" parent="1" vertex="1">
          <mxGeometry x="240" y="560" width="40" height="40" as="geometry" />
        </mxCell>
        <mxCell id="BS0-TJ9Gr1dDW-5KP8CO-77" value="1" style="whiteSpace=wrap;html=1;aspect=fixed;fillColor=#99CC66;" parent="1" vertex="1">
          <mxGeometry x="280" y="560" width="40" height="40" as="geometry" />
        </mxCell>
        <mxCell id="BS0-TJ9Gr1dDW-5KP8CO-78" value="1" style="whiteSpace=wrap;html=1;aspect=fixed;fillColor=#35B0AB;" parent="1" vertex="1">
          <mxGeometry x="320" y="560" width="40" height="40" as="geometry" />
        </mxCell>
        <mxCell id="BS0-TJ9Gr1dDW-5KP8CO-80" value="2" style="whiteSpace=wrap;html=1;aspect=fixed;fillColor=#FAFFB8;" parent="1" vertex="1">
          <mxGeometry x="440" y="480" width="40" height="40" as="geometry" />
        </mxCell>
        <mxCell id="BS0-TJ9Gr1dDW-5KP8CO-81" value="2" style="whiteSpace=wrap;html=1;aspect=fixed;fillColor=#35B0AB;" parent="1" vertex="1">
          <mxGeometry x="480" y="480" width="40" height="40" as="geometry" />
        </mxCell>
        <mxCell id="BS0-TJ9Gr1dDW-5KP8CO-93" style="edgeStyle=orthogonalEdgeStyle;rounded=0;orthogonalLoop=1;jettySize=auto;html=1;exitX=0.5;exitY=1;exitDx=0;exitDy=0;entryX=0.5;entryY=0;entryDx=0;entryDy=0;" parent="1" source="BS0-TJ9Gr1dDW-5KP8CO-83" target="BS0-TJ9Gr1dDW-5KP8CO-89" edge="1">
          <mxGeometry relative="1" as="geometry" />
        </mxCell>
        <mxCell id="BS0-TJ9Gr1dDW-5KP8CO-83" value="1" style="whiteSpace=wrap;html=1;aspect=fixed;fillColor=#99CC66;" parent="1" vertex="1">
          <mxGeometry x="520" y="480" width="40" height="40" as="geometry" />
        </mxCell>
        <mxCell id="BS0-TJ9Gr1dDW-5KP8CO-94" style="edgeStyle=orthogonalEdgeStyle;rounded=0;orthogonalLoop=1;jettySize=auto;html=1;exitX=0.5;exitY=1;exitDx=0;exitDy=0;entryX=0.5;entryY=0;entryDx=0;entryDy=0;" parent="1" source="BS0-TJ9Gr1dDW-5KP8CO-84" target="BS0-TJ9Gr1dDW-5KP8CO-90" edge="1">
          <mxGeometry relative="1" as="geometry" />
        </mxCell>
        <mxCell id="BS0-TJ9Gr1dDW-5KP8CO-84" value="2" style="whiteSpace=wrap;html=1;aspect=fixed;fillColor=#FAFFB8;" parent="1" vertex="1">
          <mxGeometry x="560" y="480" width="40" height="40" as="geometry" />
        </mxCell>
        <mxCell id="BS0-TJ9Gr1dDW-5KP8CO-95" style="edgeStyle=orthogonalEdgeStyle;rounded=0;orthogonalLoop=1;jettySize=auto;html=1;exitX=0.5;exitY=1;exitDx=0;exitDy=0;entryX=0.5;entryY=0;entryDx=0;entryDy=0;" parent="1" source="BS0-TJ9Gr1dDW-5KP8CO-85" target="BS0-TJ9Gr1dDW-5KP8CO-91" edge="1">
          <mxGeometry relative="1" as="geometry" />
        </mxCell>
        <mxCell id="BS0-TJ9Gr1dDW-5KP8CO-85" value="1" style="whiteSpace=wrap;html=1;aspect=fixed;fillColor=#99CC66;" parent="1" vertex="1">
          <mxGeometry x="600" y="480" width="40" height="40" as="geometry" />
        </mxCell>
        <mxCell id="BS0-TJ9Gr1dDW-5KP8CO-86" value="1" style="whiteSpace=wrap;html=1;aspect=fixed;fillColor=#35B0AB;" parent="1" vertex="1">
          <mxGeometry x="640" y="480" width="40" height="40" as="geometry" />
        </mxCell>
        <mxCell id="BS0-TJ9Gr1dDW-5KP8CO-87" value="2" style="whiteSpace=wrap;html=1;aspect=fixed;fillColor=#FAFFB8;" parent="1" vertex="1">
          <mxGeometry x="440" y="560" width="40" height="40" as="geometry" />
        </mxCell>
        <mxCell id="BS0-TJ9Gr1dDW-5KP8CO-88" value="2" style="whiteSpace=wrap;html=1;aspect=fixed;fillColor=#35B0AB;" parent="1" vertex="1">
          <mxGeometry x="480" y="560" width="40" height="40" as="geometry" />
        </mxCell>
        <mxCell id="BS0-TJ9Gr1dDW-5KP8CO-89" value="2" style="whiteSpace=wrap;html=1;aspect=fixed;fillColor=#99CC66;" parent="1" vertex="1">
          <mxGeometry x="520" y="560" width="40" height="40" as="geometry" />
        </mxCell>
        <mxCell id="BS0-TJ9Gr1dDW-5KP8CO-90" value="1" style="whiteSpace=wrap;html=1;aspect=fixed;fillColor=#FAFFB8;" parent="1" vertex="1">
          <mxGeometry x="560" y="560" width="40" height="40" as="geometry" />
        </mxCell>
        <mxCell id="BS0-TJ9Gr1dDW-5KP8CO-91" value="1" style="whiteSpace=wrap;html=1;aspect=fixed;fillColor=#99CC66;" parent="1" vertex="1">
          <mxGeometry x="600" y="560" width="40" height="40" as="geometry" />
        </mxCell>
        <mxCell id="BS0-TJ9Gr1dDW-5KP8CO-92" value="1" style="whiteSpace=wrap;html=1;aspect=fixed;fillColor=#35B0AB;" parent="1" vertex="1">
          <mxGeometry x="640" y="560" width="40" height="40" as="geometry" />
        </mxCell>
        <mxCell id="BS0-TJ9Gr1dDW-5KP8CO-99" value="OS" style="text;html=1;align=center;verticalAlign=middle;resizable=0;points=[];autosize=1;strokeColor=none;fillColor=none;fontFamily=Times New Roman;" parent="1" vertex="1">
          <mxGeometry x="80" y="165" width="40" height="30" as="geometry" />
        </mxCell>
        <mxCell id="BS0-TJ9Gr1dDW-5KP8CO-100" value="MA" style="text;html=1;align=center;verticalAlign=middle;resizable=0;points=[];autosize=1;strokeColor=none;fillColor=none;fontFamily=Times New Roman;" parent="1" vertex="1">
          <mxGeometry x="80" y="325" width="40" height="30" as="geometry" />
        </mxCell>
        <mxCell id="BS0-TJ9Gr1dDW-5KP8CO-101" value="RA" style="text;html=1;align=center;verticalAlign=middle;resizable=0;points=[];autosize=1;strokeColor=none;fillColor=none;fontFamily=Times New Roman;" parent="1" vertex="1">
          <mxGeometry x="80" y="485" width="40" height="30" as="geometry" />
        </mxCell>
        <mxCell id="BS0-TJ9Gr1dDW-5KP8CO-102" value="OS" style="text;html=1;align=center;verticalAlign=middle;resizable=0;points=[];autosize=1;strokeColor=none;fillColor=none;fontFamily=Times New Roman;" parent="1" vertex="1">
          <mxGeometry x="400" y="165" width="40" height="30" as="geometry" />
        </mxCell>
        <mxCell id="BS0-TJ9Gr1dDW-5KP8CO-103" value="MA" style="text;html=1;align=center;verticalAlign=middle;resizable=0;points=[];autosize=1;strokeColor=none;fillColor=none;fontFamily=Times New Roman;" parent="1" vertex="1">
          <mxGeometry x="400" y="325" width="40" height="30" as="geometry" />
        </mxCell>
        <mxCell id="BS0-TJ9Gr1dDW-5KP8CO-104" value="RA" style="text;html=1;align=center;verticalAlign=middle;resizable=0;points=[];autosize=1;strokeColor=none;fillColor=none;fontFamily=Times New Roman;" parent="1" vertex="1">
          <mxGeometry x="400" y="485" width="40" height="30" as="geometry" />
        </mxCell>
        <mxCell id="BS0-TJ9Gr1dDW-5KP8CO-105" value="a" style="text;html=1;align=center;verticalAlign=middle;resizable=0;points=[];autosize=1;strokeColor=none;fillColor=none;fontFamily=Times New Roman;" parent="1" vertex="1">
          <mxGeometry x="220" y="608" width="30" height="30" as="geometry" />
        </mxCell>
        <mxCell id="BS0-TJ9Gr1dDW-5KP8CO-106" value="b" style="text;html=1;align=center;verticalAlign=middle;resizable=0;points=[];autosize=1;strokeColor=none;fillColor=none;fontFamily=Times New Roman;" parent="1" vertex="1">
          <mxGeometry x="540" y="608" width="30" height="30" as="geometry" />
        </mxCell>
      </root>
    </mxGraphModel>
  </diagram>
</mxfile>
